Coordinates
version=1
nRows=11
nColumns=40
inDegrees=yes

Units are S.I. units (second, meters, Newtons, ...)
Angles are in degrees.

endheader
time	pelvis_tilt	pelvis_list	pelvis_rotation	pelvis_tx	pelvis_ty	pelvis_tz	hip_flexion_r	hip_adduction_r	hip_rotation_r	knee_angle_r	knee_angle_r_beta	ankle_angle_r	subtalar_angle_r	mtp_angle_r	hip_flexion_l	hip_adduction_l	hip_rotation_l	knee_angle_l	knee_angle_l_beta	ankle_angle_l	subtalar_angle_l	mtp_angle_l	lumbar_extension	lumbar_bending	lumbar_rotation	arm_flex_r	arm_add_r	arm_rot_r	elbow_flex_r	pro_sup_r	wrist_flex_r	wrist_dev_r	arm_flex_l	arm_add_l	arm_rot_l	elbow_flex_l	pro_sup_l	wrist_flex_l	wrist_dev_l
      0.54000000	     -3.99355808	     -2.90572078	      1.69605256	      0.89711222	      0.93059472	      0.43549796	     32.26555969	     -6.49108980	     -5.09388965	     70.84577722	     70.84577722	      1.62460595	    -16.54365466	      2.38429592	     17.19166581	     -3.14293309	     -7.90577074	     21.43434108	     21.43434108	     11.14253351	     -8.43572849	     -3.06611323	     -9.41215863	      4.34281000	      2.03671130	      9.91965665	    -11.98139452	     -4.10569799	     49.80920172	     45.22633463	      0.00000000	      0.00000000	     11.05554149	    -13.51360961	     -4.06452422	     48.42458575	     45.55150650	      0.00000000	      0.00000000
      0.55214286	     -3.95125377	     -2.98825440	      1.49921296	      0.89668844	      0.93150486	      0.43541496	     33.13924363	     -6.37633593	     -5.08887235	     69.22413626	     69.22413626	      1.62284420	    -16.41555576	      2.24148336	     16.26124762	     -3.23034039	     -8.10391811	     20.79822985	     20.79822985	     11.37207900	     -8.17025828	     -3.21299008	     -9.63475495	      4.46319207	      2.45361758	      7.96611314	    -12.36672502	     -4.00608310	     47.38298474	     45.30827766	      0.00000000	      0.00000000	     12.34458297	    -13.62830655	     -4.31917893	     49.76389623	     45.62559360	      0.00000000	      0.00000000
      0.56428571	     -3.88685895	     -3.12395462	      1.31598047	      0.89635799	      0.93239887	      0.43543582	     33.81206983	     -6.17007640	     -5.12998704	     67.33454245	     67.33454245	      1.35001310	    -16.42393401	      1.49202627	     15.29405042	     -3.38185735	     -8.32134497	     20.11592463	     20.11592463	     11.47117122	     -7.91998067	     -3.77438975	     -9.80471113	      4.60922971	      1.98394583	      7.50775077	    -12.09896036	     -4.19909681	     42.30173546	     45.52587863	      0.00000000	      0.00000000	     12.71042567	    -14.24442440	     -4.84277785	     52.13349954	     45.79020402	      0.00000000	      0.00000000
      0.57642857	     -3.88210007	     -3.17245758	      1.08921568	      0.89595821	      0.93309224	      0.43536644	     34.48070420	     -6.06261304	     -5.13780420	     65.30053546	     65.30053546	      1.34326170	    -16.20054934	      1.65940213	     14.42499027	     -3.42039935	     -8.54033982	     19.50894697	     19.50894697	     11.70479179	     -7.70741057	     -3.80657904	    -10.03328127	      4.74047112	      2.52135104	      5.54873995	    -12.49724970	     -4.10581294	     40.34562316	     45.58758440	      0.00000000	      0.00000000	     13.94662010	    -14.29397218	     -5.23075197	     53.61181641	     45.86844487	      0.00000000	      0.00000000
      0.58857143	     -3.88090897	     -3.22826977	      0.88139564	      0.89560897	      0.93367789	      0.43541671	     34.98271912	     -5.93344680	     -5.19734475	     62.97161637	     62.97161637	      1.21616971	    -16.00030551	      1.55431510	     13.57408486	     -3.48167827	     -8.80090641	     18.90003729	     18.90003729	     11.81702735	     -7.44446344	     -4.26483679	    -10.18467999	      4.82645643	      2.07716082	      5.36426776	    -12.22011624	     -4.41972522	     35.22658437	     45.81906688	      0.00000000	      0.00000000	     14.16398489	    -14.83005725	     -6.04222067	     56.20658301	     46.05162170	      0.00000000	      0.00000000
      0.60071429	     -3.87159585	     -3.25522106	      0.64588033	      0.89532231	      0.93419576	      0.43553995	     35.33754253	     -5.79700581	     -5.23965739	     60.36765800	     60.36765800	      1.23829565	    -15.70198530	      1.78966094	     12.69208689	     -3.49060281	     -9.01086771	     18.26081790	     18.26081790	     12.04272654	     -7.27538333	     -4.25708065	    -10.38279710	      4.91095596	      2.48505410	      3.57442420	    -12.52059449	     -4.42458409	     33.56237693	     45.87650839	      0.00000000	      0.00000000	     15.26640944	    -14.89725914	     -6.45243149	     57.61154255	     46.12752813	      0.00000000	      0.00000000
      0.61285714	     -3.92266876	     -3.26304309	      0.41527585	      0.89500391	      0.93448243	      0.43578581	     35.59267471	     -5.68471283	     -5.36091296	     57.41328947	     57.41328947	      1.06880441	    -15.40508901	      1.40902334	     11.91330363	     -3.49773204	     -9.25832687	     17.67080802	     17.67080802	     12.15737114	     -7.06599265	     -4.61933955	    -10.49898124	      4.93242349	      2.08281353	      3.31345570	    -12.29271715	     -5.06510750	     29.29190941	     46.11149763	      0.00000000	      0.00000000	     15.33599835	    -15.38468729	     -7.42358704	     60.39504567	     46.32089912	      0.00000000	      0.00000000
      0.62500000	     -3.98851563	     -3.25901068	      0.18084786	      0.89470995	      0.93465525	      0.43612127	     35.71823653	     -5.56066569	     -5.52313196	     54.16179934	     54.16179934	      1.12887103	    -14.89019248	      1.60661568	     11.16017520	     -3.48083122	     -9.46099201	     17.10288794	     17.10288794	     12.38077334	     -6.90604561	     -4.62527183	    -10.61695300	      4.97948155	      2.44001040	      1.62939671	    -12.53670263	     -5.14649856	     27.99655891	     46.16223898	      0.00000000	      0.00000000	     16.33305761	    -15.43316513	     -7.80192758	     61.75924627	     46.38983902	      0.00000000	      0.00000000
      0.63714286	     -4.09392924	     -3.22741093	     -0.04818038	      0.89442523	      0.93460961	      0.43663118	     35.72522981	     -5.44747627	     -5.76406874	     50.59267968	     50.59267968	      1.18672110	    -14.24031324	      1.59726475	     10.48006742	     -3.45325436	     -9.70781266	     16.59124880	     16.59124880	     12.60381796	     -6.71557146	     -4.72490088	    -10.69560464	      4.94279103	      2.73059657	      0.11511809	    -12.67810315	     -5.30015566	     26.52846885	     46.23032929	      0.00000000	      0.00000000	     17.14941817	    -15.54912632	     -8.20476729	     63.51583508	     46.46661468	      0.00000000	      0.00000000
      0.64928571	     -4.24323903	     -3.22135788	     -0.24228598	      0.89414060	      0.93439671	      0.43724519	     35.58469983	     -5.30273751	     -6.14216401	     46.66710743	     46.66710743	      1.18445068	    -13.36637832	      1.46279944	      9.88355041	     -3.46263007	     -9.91317274	     16.13451326	     16.13451326	     12.81003281	     -6.49458070	     -4.87891804	    -10.72516686	      4.95182010	      2.86862508	     -1.25551554	    -12.76560272	     -5.51673127	     25.14306672	     46.30372908	      0.00000000	      0.00000000	     17.75425563	    -15.72274941	     -8.62859809	     65.43350225	     46.54612880	      0.00000000	      0.00000000
      0.66142857	     -4.45161307	     -3.18564466	     -0.39445210	      0.89390074	      0.93391415	      0.43796619	     35.23467571	     -5.15309993	     -6.63719600	     42.24698069	     42.24698069	      0.36144201	    -12.70433607	     -0.89760015	      9.37935545	     -3.45600720	    -10.14691215	     15.72117002	     15.72117002	     12.93544422	     -6.24538773	     -5.38029877	    -10.67909725	      4.89358188	      2.10363873	     -1.47674877	    -12.51377552	     -6.95175552	     22.46187404	     46.59706430	      0.00000000	      0.00000000	     17.14383392	    -16.29447967	    -10.09283069	     69.09790255	     46.79542114	      0.00000000	      0.00000000
